<svg xmlns="http://www.w3.org/2000/svg" viewBox="0 0 64 64" width="64" height="64">
  <path d="M32 4C25 8 18 12 14 18C10 24 12 28 16 30C16 30 12 32 8 34L10 42C12 40 18 38 22 34C26 38 28 44 32 44C36 44 38 38 42 34C46 38 52 40 54 42L56 34C52 32 48 30 48 30C52 28 54 24 50 18C46 12 39 8 32 4Z" fill="#ffffff"/>
  <line x1="32" y1="4" x2="32" y2="44" stroke="#111" stroke-width="1"/>
  <line x1="14" y1="18" x2="50" y2="18" stroke="#111" stroke-width="0.5"/>
  <line x1="8" y1="30" x2="56" y2="30" stroke="#111" stroke-width="0.5"/>
</svg>